<svg xmlns="http://www.w3.org/2000/svg" width="19" height="24" viewBox="0 0 19 24" xmlns:xlink="http://www.w3.org/1999/xlink">
  <defs>
    <path id="a" d="M13.4425,19.54625 C13.4425,21.6462883 11.61318,23.48875 9.53811083,23.48875 C7.46304167,23.48875 5.5575,21.6462883 5.5575,19.54625 L13.4425,19.54625 Z M12.48015,3.74775 C11.86835,3.39245 11.49025,2.73125 11.4912,2.01875 L11.4912,2.0159 C11.49215,0.9025 10.6001,0 9.5,0 C8.3999,0 7.50785,0.9025 7.50785,2.0159 L7.50785,2.01875 C7.5088,2.7322 7.13165,3.39245 6.5189,3.74775 C2.0843,6.3213 4.63315,14.877 0,16.38845 L0,18.05 L19,18.05 L19,16.38845 C14.36685,14.877 16.91665,6.32035 12.48015,3.74775 L12.48015,3.74775 Z"/>
    <mask id="b" width="19" height="23.489" x="0" y="0" fill="white">
      <use xlink:href="#a"/>
    </mask>
  </defs>
  <use fill="none" fill-rule="evenodd" stroke="#999999" stroke-width="1" mask="url(#b)" xlink:href="#a"/>
</svg>
