<svg xmlns="http://www.w3.org/2000/svg" width="24" height="24" viewBox="0 0 24 24">
  <path fill="#FFFFFF" fill-rule="evenodd" d="M19,2 C20.654,2 22,3.346 22,5 L22,19 C22,20.654 20.654,22 19,22 L5,22 C3.346,22 2,20.654 2,19 L2,5 C2,3.346 3.346,2 5,2 L19,2 Z M19,0 L5,0 C2.239,0 0,2.239 0,5 L0,19 C0,21.761 2.239,24 5,24 L19,24 C21.762,24 24,21.761 24,19 L24,5 C24,2.239 21.762,0 19,0 Z M12,6 C8.687,6 6,8.687 6,12 C6,15.313 8.687,18 12,18 C15.313,18 18,15.313 18,12 C18,8.687 15.313,6 12,6 Z M12,16 C9.794,16 8,14.206 8,12 C8,9.794 9.794,8 12,8 C14.205,8 16,9.794 16,12 C16,14.206 14.205,16 12,16 Z M19,6 C18.447,6 18,5.552 18,5 C18,4.448 18.447,4 19,4 C19.553,4 20,4.448 20,5 C20,5.552 19.553,6 19,6 Z"/>
</svg>
