<svg xmlns="http://www.w3.org/2000/svg" width="28" height="49" viewBox="0 0 28 49">
  <g fill="#FFFFFF" fill-rule="evenodd">
    <path d="M4.00000037,0 C1.7900004,0 4.27980414e-07,1.82933333 4.27980414e-07,4.08333333 L4.27980414e-07,42.2175833 C-0.00199957199,46.7357917 7.00600032,49 14.0100002,49 C21.0060001,49 28,46.7419167 28,42.2175833 L28,4.08333333 C28,1.82933333 26.21,0 24.0000001,0 L4.00000037,0 Z M14,46 C12.896,46 12,45.104 12,44 C12,42.896 12.896,42 14,42 C15.104,42 16,42.896 16,44 C16,45.104 15.104,46 14,46 Z M25,40 L3,40 L3,4 L25,4 L25,40 Z"/>
    <polygon points="14 30 6 22 12 22 12 14 16 14 16 22 22 22"/>
  </g>
</svg>
