<svg xmlns="http://www.w3.org/2000/svg" width="58" height="33" viewBox="0 0 58 33">
  <g fill="none" fill-rule="evenodd">
    <path fill="#000000" fill-opacity=".9" d="M29.5,32.1875 L25,26 L34,26 L29.5,32.1875 Z M0,13 C0,5.82029825 5.82681863,0 12.9982724,0 L45.0017276,0 C52.1804752,0 58,5.81871963 58,13 C58,20.1797017 52.1731814,26 45.0017276,26 L12.9982724,26 C5.81952478,26 0,20.1812804 0,13 Z"/>
    <path fill="#FFFFFF" d="M5.924,9.864 L5.924,10.4 L10.524,10.4 L10.524,11 L11.1,11 L11.1,5.568 L5.98,5.568 L5.98,6.104 L10.524,6.104 L10.524,9.864 L5.924,9.864 Z M13.764,5.696 L14.132,5.304 C14.82,5.768 15.428,6.264 16.012,6.856 L15.572,7.32 C14.988,6.656 14.428,6.168 13.764,5.696 Z M14.1,10.984 L13.924,10.456 C16.316,9.936 18.244,8.616 19.132,6.184 L19.652,6.488 C18.724,9.016 16.7,10.432 14.1,10.984 Z M21.356,7.544 L24.3,7.544 C24.26,9.176 23.548,10.24 22.252,10.84 L22.636,11.296 C24.124,10.544 24.852,9.296 24.884,7.544 L27.644,7.544 L27.644,7.032 L21.356,7.032 L21.356,7.544 Z M22.1,5.648 L26.908,5.648 L26.908,5.12 L22.1,5.12 L22.1,5.648 Z M29.764,5.696 L30.132,5.304 C30.82,5.768 31.428,6.264 32.012,6.856 L31.572,7.32 C30.988,6.656 30.428,6.168 29.764,5.696 Z M30.1,10.984 L29.924,10.456 C32.316,9.936 34.244,8.616 35.132,6.184 L35.652,6.488 C34.724,9.016 32.7,10.432 30.1,10.984 Z M37.476,5.656 C37.796,6.248 38.092,7.016 38.316,7.76 L38.86,7.552 C38.62,6.816 38.356,6.136 37.98,5.464 L37.476,5.656 Z M42.94,5.192 L43.508,5.288 C43.18,7.96 41.676,10.176 39.404,11.176 L39.084,10.728 C41.212,9.776 42.572,7.872 42.94,5.192 Z M39.596,5.24 L40.116,5.056 C40.444,5.64 40.748,6.384 40.996,7.12 L40.428,7.36 C40.228,6.624 39.916,5.856 39.596,5.24 Z M47.02,11.056 C47.268,11.168 47.588,11.256 47.876,11.256 C48.516,11.256 48.892,10.992 49.084,10.384 C49.3,9.688 49.412,8.8 49.412,7.832 C49.412,6.92 49.132,6.44 48.18,6.44 C47.956,6.44 47.724,6.464 47.476,6.472 C47.628,5.88 47.748,5.32 47.836,4.824 C47.652,4.744 47.46,4.72 47.268,4.72 C47.204,5.288 47.084,5.88 46.924,6.496 C46.38,6.544 45.764,6.624 45.092,6.736 C45.084,6.76 45.084,6.792 45.084,6.824 C45.084,6.944 45.108,7.112 45.148,7.24 C45.732,7.136 46.3,7.056 46.804,6.976 C46.428,8.304 45.884,9.624 45.188,10.76 C45.332,10.88 45.54,10.976 45.692,11.008 C46.436,9.872 46.972,8.312 47.356,6.92 C47.66,6.896 47.924,6.888 48.156,6.888 C48.708,6.888 48.868,7.088 48.868,7.824 C48.868,8.776 48.764,9.584 48.564,10.216 C48.428,10.624 48.244,10.736 47.908,10.736 C47.644,10.736 47.332,10.656 47.036,10.544 L47.02,11.056 Z M49.884,6.088 C49.996,5.976 50.148,5.856 50.316,5.824 C51.06,6.496 51.684,7.528 51.98,8.408 C51.884,8.512 51.644,8.656 51.468,8.72 C51.18,7.736 50.668,6.848 49.884,6.088 Z M50.316,4.6 L50.708,4.392 C51.036,4.776 51.348,5.312 51.508,5.76 L51.068,5.968 C50.9,5.48 50.636,5.008 50.316,4.6 Z M51.252,4.248 L51.652,4.048 C51.98,4.416 52.3,4.96 52.492,5.384 L52.044,5.592 C51.82,5.096 51.564,4.664 51.252,4.248 Z M13.476,20.488 L13.14,20.016 C14.468,19.616 15.132,19.008 15.132,18.064 C15.132,17.288 14.652,16.696 13.62,16.528 C13.388,17.16 13.068,17.776 12.66,18.336 C12.468,18.568 12.276,18.824 12.036,19.016 C12.108,19.32 12.18,19.568 12.276,19.84 C12.132,19.944 11.956,20.024 11.756,20.016 C11.692,19.832 11.628,19.616 11.58,19.408 C11.044,19.816 10.676,19.896 10.284,19.896 C9.748,19.896 9.316,19.536 9.316,18.896 C9.316,17.76 10.156,16.848 11.252,16.392 C11.252,15.976 11.268,15.536 11.292,15.12 C11.052,15.128 10.812,15.128 10.58,15.128 C10.34,15.128 10.108,15.128 9.884,15.12 C9.868,15.048 9.86,14.976 9.86,14.896 C9.86,14.8 9.868,14.704 9.892,14.608 C10.164,14.616 10.444,14.624 10.724,14.624 C10.924,14.624 11.124,14.624 11.316,14.616 C11.364,14.232 11.38,13.848 11.428,13.488 C11.612,13.488 11.836,13.496 12.004,13.552 C11.948,13.888 11.908,14.24 11.868,14.6 C12.756,14.568 13.652,14.496 14.556,14.368 C14.588,14.504 14.596,14.608 14.596,14.728 C14.596,14.784 14.596,14.84 14.588,14.904 C13.684,15.008 12.756,15.064 11.812,15.096 C11.78,15.464 11.764,15.84 11.756,16.208 C12.156,16.088 12.548,16.04 12.972,16.04 C13.06,16.04 13.156,16.04 13.244,16.048 C13.324,15.832 13.38,15.608 13.428,15.376 C13.612,15.384 13.772,15.416 13.972,15.504 C13.908,15.712 13.852,15.912 13.796,16.104 C14.996,16.304 15.676,17 15.676,18.072 C15.676,19.208 14.804,20.08 13.476,20.488 Z M13.092,16.464 L12.988,16.464 C12.564,16.464 12.172,16.528 11.756,16.664 C11.772,17.28 11.836,17.88 11.94,18.48 C12.484,17.896 12.812,17.208 13.092,16.464 Z M11.476,18.888 C11.34,18.216 11.284,17.56 11.26,16.896 C10.46,17.304 9.844,17.968 9.844,18.872 C9.844,19.192 10.036,19.4 10.308,19.4 C10.644,19.4 11.068,19.24 11.476,18.888 Z M20.116,20.344 C21.708,19.736 22.588,18.552 22.588,16.784 C22.588,14.864 21.86,14.088 20.924,14.088 C20.196,14.088 19.428,14.68 18.916,16.368 L18.876,16.368 C18.9,15.784 19.028,14.896 19.252,13.712 C19.084,13.68 18.932,13.664 18.788,13.664 L18.7,13.664 C18.468,15.144 18.412,16.256 18.412,16.896 C18.412,17.248 18.42,17.56 18.444,17.952 C18.532,17.96 18.628,17.968 18.724,17.968 C18.82,17.968 18.908,17.96 18.988,17.952 C19.036,17.44 19.132,16.904 19.308,16.376 C19.628,15.344 20.324,14.584 20.9,14.584 C21.516,14.584 22.004,15.16 22.004,16.776 C22.004,18.32 21.3,19.296 19.716,19.928 L20.116,20.344 Z M27.772,14.8 L28.26,14.8 C28.252,14.392 28.244,14.008 28.236,13.6 C28.316,13.584 28.412,13.576 28.508,13.576 C28.604,13.576 28.7,13.584 28.788,13.6 C28.78,14 28.772,14.376 28.764,14.784 C29.5,14.768 30.204,14.72 30.892,14.656 C30.916,14.736 30.924,14.832 30.924,14.928 C30.924,15 30.916,15.08 30.908,15.152 C30.204,15.224 29.492,15.256 28.756,15.272 C28.764,15.76 28.772,16.144 28.78,16.472 C29.604,16.448 30.412,16.368 31.092,16.304 C31.1,16.384 31.108,16.464 31.108,16.552 C31.108,16.632 31.1,16.712 31.092,16.8 C30.444,16.88 29.62,16.944 28.804,16.96 C28.812,17.336 28.844,17.832 28.892,18.272 C29.748,18.472 30.58,18.864 31.38,19.432 C31.3,19.608 31.172,19.776 31.02,19.88 C30.3,19.336 29.572,18.944 28.908,18.744 C28.916,18.888 28.924,18.96 28.924,19.032 C28.924,19.984 28.38,20.352 27.252,20.352 C26.396,20.352 25.812,19.936 25.812,19.256 C25.812,18.72 26.396,18.136 27.508,18.136 C27.804,18.136 28.084,18.152 28.356,18.184 C28.324,17.784 28.308,17.392 28.292,16.976 L27.812,16.976 C27.1,16.976 26.412,16.968 25.804,16.96 C25.78,16.832 25.764,16.72 25.764,16.608 C25.764,16.552 25.764,16.504 25.772,16.44 C26.356,16.472 27.052,16.488 27.788,16.488 L28.276,16.488 C28.268,16.112 28.26,15.776 28.252,15.288 L27.116,15.288 C26.772,15.288 26.42,15.288 26.068,15.272 C26.044,15.144 26.036,15.016 26.036,14.888 L26.036,14.76 C26.644,14.784 27.276,14.8 27.772,14.8 Z M28.38,18.68 C28.18,18.632 27.852,18.592 27.516,18.592 C26.716,18.592 26.332,18.904 26.332,19.256 C26.332,19.632 26.684,19.84 27.22,19.84 C27.956,19.84 28.396,19.624 28.396,19.072 C28.396,19.008 28.396,18.872 28.38,18.68 Z M36.516,18.216 C36.748,18.24 36.996,18.256 37.228,18.256 C37.9,18.256 38.228,17.944 38.276,17.112 C38.308,16.736 38.316,16.368 38.324,16 C38.884,15.968 39.452,15.952 40.012,15.936 C40.02,15.856 40.028,15.768 40.028,15.688 C40.028,15.592 40.02,15.496 39.996,15.408 C39.444,15.432 38.876,15.472 38.324,15.488 C38.324,14.928 38.332,14.328 38.348,13.744 C38.252,13.72 38.156,13.704 38.052,13.704 C37.956,13.704 37.86,13.712 37.772,13.736 C37.788,14.336 37.796,14.952 37.796,15.52 C36.908,15.576 36.052,15.632 35.164,15.68 C35.188,15.064 35.196,14.616 35.22,14.008 C35.14,13.984 35.036,13.968 34.932,13.968 C34.82,13.968 34.716,13.984 34.612,14.008 L34.612,15.712 C34.092,15.744 33.548,15.784 33.02,15.816 C33.004,15.896 32.996,15.968 32.996,16.04 C32.996,16.144 33.012,16.24 33.036,16.344 C33.564,16.296 34.076,16.256 34.612,16.216 L34.612,17.384 C34.612,17.944 34.636,18.432 34.676,18.84 C34.788,19.776 35.196,20.144 36.452,20.144 C37.34,20.144 38.108,20.104 39.028,19.896 C39.028,19.728 38.988,19.472 38.924,19.328 C38.084,19.52 37.3,19.616 36.452,19.616 C35.572,19.616 35.26,19.424 35.204,18.784 C35.172,18.424 35.148,17.928 35.148,17.4 C35.148,17 35.148,16.6 35.156,16.168 C36.084,16.112 36.852,16.064 37.796,16.008 C37.788,16.376 37.78,16.736 37.764,17.056 C37.732,17.584 37.572,17.736 37.196,17.736 C36.956,17.736 36.7,17.72 36.42,17.672 L36.516,18.216 Z M41.34,19.864 C41.5,19.952 41.724,20.024 41.884,20.056 C42.268,19.168 42.684,18.288 43.14,17.688 C43.46,17.272 43.892,16.984 44.252,16.984 C44.724,16.984 44.892,17.272 44.892,18.152 L44.892,18.568 C44.892,19.704 45.276,20.144 46.02,20.144 C46.796,20.144 47.476,19.704 48.084,18.488 L47.676,18.064 C47.124,19.24 46.612,19.624 46.068,19.624 C45.668,19.624 45.428,19.344 45.428,18.456 L45.428,18.008 C45.428,16.936 45.028,16.512 44.324,16.512 C43.884,16.512 43.404,16.768 42.86,17.488 L42.828,17.472 C43.38,16.16 43.9,15 44.428,13.856 C44.236,13.76 44.06,13.696 43.868,13.672 L41.34,19.864 Z"/>
  </g>
</svg>
