<svg xmlns="http://www.w3.org/2000/svg" width="13" height="10" viewBox="0 0 13 10" xmlns:xlink="http://www.w3.org/1999/xlink">
  <defs>
    <path id="a" d="M7.70691207,6.47985224 C6.83565892,6.3016463 6.02459701,6.14551421 6.41736013,5.48868266 C7.61267325,3.4896535 6.73412418,2.42041787 5.47193189,2.42041787 C4.18481191,2.42041787 3.32754258,3.53057088 4.52650366,5.48868266 C4.93081863,6.14928292 4.0893571,6.30541501 3.23695171,6.47985224 C2.36630655,6.65805818 2.43318571,7.06507839 2.43318571,7.80428308 L8.51067807,7.80428308 C8.51067807,7.06507839 8.57755724,6.65805818 7.70691207,6.47985224 Z M0,8.33333333 L10.7677304,8.33333333 L10.7677304,0 L0,0 L0,8.33333333 Z"/>
    <mask id="b" width="10.768" height="8.333" x="0" y="0" fill="white">
      <use xlink:href="#a"/>
    </mask>
  </defs>
  <g fill="none" fill-rule="evenodd">
    <use stroke="#FFFFFF" stroke-width="2" mask="url(#b)" xlink:href="#a"/>
    <polygon fill="#FFFFFF" fill-rule="nonzero" points="1.584 9.448 1.584 10.448 12.515 10.448 12.515 1.386 11.515 1.386 11.515 9.448"/>
  </g>
</svg>
