<svg xmlns="http://www.w3.org/2000/svg" width="32" height="32" viewBox="0 0 32 32">
  <g fill="none" fill-rule="evenodd">
    <polygon fill="#E7466E" points="0 0 32 0 0 32"/>
    <path fill="#FFFFFF" d="M2.20528137,13.4852814 L2.20528137,8.11728137 L5.41328137,13.4852814 L6.27728137,13.4852814 L6.27728137,7.46928137 L5.65328137,7.46928137 L5.65328137,12.6612814 L2.55728137,7.46928137 L1.59728137,7.46928137 L1.59728137,13.4852814 L2.20528137,13.4852814 Z M11.8692814,13.4852814 L11.8692814,12.8932814 L8.98928137,12.8932814 L8.98928137,10.6212814 L11.4532814,10.6212814 L11.4532814,10.0532814 L8.98928137,10.0532814 L8.98928137,8.06128137 L11.8052814,8.06128137 L11.8052814,7.46928137 L8.34928137,7.46928137 L8.34928137,13.4852814 L11.8692814,13.4852814 Z M14.8612814,13.4852814 L16.4292814,8.78128137 L17.9652814,13.4852814 L18.6932814,13.4852814 L20.1332814,7.46928137 L19.4532814,7.46928137 L18.2932814,12.5972814 L16.6772814,7.58128137 L16.2452814,7.58128137 L14.5812814,12.5972814 L13.3572814,7.46928137 L12.7012814,7.46928137 L14.1492814,13.4852814 L14.8612814,13.4852814 Z" transform="rotate(-45 10.865 10.477)"/>
  </g>
</svg>
