<svg xmlns="http://www.w3.org/2000/svg" width="16" height="16" viewBox="0 0 16 16">
  <g fill="none" fill-rule="evenodd">
    <circle cx="8" cy="8" r="8" fill="#E7466E"/>
    <path fill="#FFFFFF" d="M1.205,5.404 C1.241,5.62 1.253,5.8 1.253,6.076 L1.253,9.25 C1.253,9.562 1.241,9.772 1.205,9.964 L1.763,9.964 C1.727,9.766 1.715,9.568 1.715,9.25 L1.715,6.688 C1.715,6.532 1.703,6.238 1.679,5.956 C1.763,6.118 1.961,6.46 2.009,6.532 L3.935,9.424 C4.097,9.67 4.163,9.79 4.247,9.964 L4.901,9.964 C4.865,9.772 4.853,9.592 4.853,9.292 L4.853,6.094 C4.853,5.788 4.865,5.62 4.901,5.404 L4.343,5.404 C4.379,5.614 4.391,5.8 4.391,6.094 L4.391,8.638 C4.391,8.692 4.403,8.956 4.427,9.436 C4.283,9.178 4.103,8.884 4.037,8.782 L2.141,5.944 C1.967,5.674 1.889,5.542 1.835,5.404 L1.205,5.404 Z M8.927,9.502 C8.705,9.532 8.537,9.544 8.261,9.544 L6.359,9.544 L6.359,7.78 L7.937,7.78 C8.249,7.78 8.405,7.792 8.609,7.822 L8.609,7.318 C8.381,7.348 8.201,7.36 7.937,7.36 L6.359,7.36 L6.359,5.824 L8.207,5.824 C8.507,5.824 8.669,5.836 8.879,5.866 L8.879,5.362 C8.675,5.392 8.471,5.404 8.207,5.404 L6.497,5.404 C6.209,5.404 6.047,5.398 5.837,5.386 C5.873,5.65 5.885,5.812 5.885,6.07 L5.885,9.268 C5.885,9.574 5.873,9.754 5.837,9.982 C6.041,9.97 6.209,9.964 6.497,9.964 L8.255,9.964 C8.573,9.964 8.735,9.976 8.927,10.006 L8.927,9.502 Z M13.847,9.964 C13.871,9.832 13.871,9.826 14.003,9.37 L14.957,6.088 C15.053,5.752 15.101,5.608 15.191,5.404 L14.591,5.404 C14.579,5.578 14.537,5.794 14.477,6.028 L13.769,8.62 L13.607,9.31 C13.487,8.842 13.463,8.752 13.427,8.62 L12.623,5.992 C12.551,5.764 12.509,5.584 12.479,5.404 L12.029,5.404 C12.011,5.542 11.957,5.776 11.891,5.992 L11.087,8.626 C11.039,8.788 10.967,9.07 10.907,9.31 C10.823,8.944 10.787,8.776 10.745,8.632 L10.037,6.028 C9.971,5.782 9.935,5.584 9.923,5.404 L9.317,5.404 C9.413,5.602 9.467,5.758 9.563,6.088 L10.511,9.37 C10.655,9.856 10.655,9.856 10.673,9.964 L11.135,9.964 C11.165,9.814 11.189,9.712 11.291,9.388 L12.077,6.796 C12.113,6.676 12.191,6.364 12.233,6.208 C12.233,6.184 12.245,6.148 12.257,6.106 C12.299,6.334 12.353,6.538 12.431,6.796 L13.223,9.388 C13.301,9.628 13.355,9.844 13.379,9.964 L13.847,9.964 Z"/>
  </g>
</svg>
