<svg xmlns="http://www.w3.org/2000/svg" width="10" height="10" viewBox="0 0 10 10">
  <path fill="#FFFFFF" d="M9.98915736,9.01054869 C9.99984103,9.18935053 10.0006537,9.3845165 9.99970605,9.597 L9.99970605,9 L9.99970605,9.597 L9.4053569,9.59434915 L9.98915736,9.01054869 Z M8.45170138,8.51434296 C8.3612636,8.49346867 8.3612636,8.49346867 8.27023071,8.47241628 C7.1953513,8.2234012 6.69939207,8.06796679 6.2242786,7.74785289 C5.36765683,7.17069279 5.14608164,6.2230035 5.67195327,5.23135954 C7.1290571,2.47718932 6.5523582,1 4.99994703,1 C3.43737432,1 2.85785621,2.51749556 4.32537348,5.22282687 C4.87042096,6.22936907 4.63393508,7.19024633 3.75451024,7.76599922 C3.27465739,8.0801553 2.79932737,8.22594724 1.69999566,8.47956739 C1.6242329,8.49703244 1.6242329,8.49703244 1.54943872,8.51428608 C1.28055423,8.57646862 1.1174446,8.61674852 1.00330857,8.65012826 C1.0005798,8.73281943 0.999632197,8.84452585 1.00018802,9 L8.99465423,9 C8.97167322,8.61760339 8.86960253,8.6110117 8.45170138,8.51434296 Z M8.999716,9.59253996 L9.4053569,9.59434915 L8.99970605,10 L8.99970605,9.14179639 C9.00182986,9.26179668 9.00053244,9.40948482 8.999716,9.59253996 Z M8.99970605,9 L9.98851437,9 L8.99465423,9 C8.99720399,9.04242718 8.99878015,9.08948054 8.99970605,9.14179639 L8.99970605,9 Z M9.99970605,10 L0.000188016533,10 L0.000188016532,9 C-0.00381179068,7.888 0.0441858959,7.836 1.3241242,7.54 C2.72705658,7.216 4.11098988,6.927 3.44602193,5.699 C1.47311702,2.062 2.88304907,0 4.99994703,0 C7.07684693,0 8.52077733,1.985 6.55587204,5.699 C5.90890322,6.919 7.20603722,7.54 8.67676982,7.54 C10.5197754,7.54 9.99970605,10 9.99970605,10 Z"/>
</svg>
