<svg xmlns="http://www.w3.org/2000/svg" width="24" height="24" viewBox="0 0 24 24" xmlns:xlink="http://www.w3.org/1999/xlink">
  <defs>
    <path id="a" d="M24,14.187 L24,9.813 C21.852,9.047 21.274,9.011 20.973,8.284 C20.67,7.555 21.056,7.115 22.032,5.061 L18.939,1.968 C16.913,2.931 16.451,3.332 15.715,3.027 C14.988,2.725 14.947,2.138 14.188,0 L9.813,0 C9.049,2.144 9.013,2.725 8.284,3.027 C7.532,3.34 7.081,2.927 5.061,1.968 L1.968,5.061 C2.945,7.116 3.33,7.554 3.027,8.285 C2.725,9.012 2.146,9.049 0,9.813 L0,14.188 C2.139,14.948 2.725,14.988 3.027,15.716 C3.331,16.45 2.946,16.883 1.968,18.939 L5.061,22.032 C7.06,21.082 7.531,20.659 8.284,20.973 C9.012,21.275 9.048,21.853 9.813,24 L14.187,24 C14.945,21.869 14.986,21.277 15.724,20.969 C16.469,20.661 16.91,21.068 18.939,22.031 L22.032,18.938 C21.057,16.888 20.67,16.446 20.973,15.715 C21.273,14.989 21.853,14.952 24,14.187 L24,14.187 Z M12,6 C15.308,6 18,8.692 18,12 C18,15.308 15.308,18 12,18 C8.692,18 6,15.308 6,12 C6,8.692 8.692,6 12,6 Z"/>
    <mask id="b" width="24" height="24" x="0" y="0" fill="white">
      <use xlink:href="#a"/>
    </mask>
  </defs>
  <use fill="none" fill-rule="evenodd" stroke="#555555" stroke-width="2" mask="url(#b)" xlink:href="#a"/>
</svg>
