<svg xmlns="http://www.w3.org/2000/svg" width="20" height="21" viewBox="0 0 20 21">
  <g fill="#E7466E" fill-rule="evenodd">
    <path fill-rule="nonzero" d="M18.8416667,3.5 L17.0333333,21 L2.8,21 L0.991666667,3.5 L1.81276667,3.5 L3.31321667,20.2222222 L16.519125,20.2222222 L18.019575,3.5 L18.8416667,3.5 Z M11.8365917,1.16666667 C11.8365917,1.16666667 11.38585,0.875972222 11.38585,0 L8.44748333,0 C8.44748333,0.875972222 7.99674167,1.16666667 7.99674167,1.16666667 L0,1.16666667 L0,2.33333333 L19.8333333,2.33333333 L19.8333333,1.16666667 L11.8365917,1.16666667 Z"/>
    <rect width="1.167" height="10.5" x="5.95" y="5.833" rx=".583"/>
    <rect width="1.167" height="10.5" x="9.45" y="5.833" rx=".583"/>
    <rect width="1.167" height="10.5" x="12.95" y="5.833" rx=".583"/>
  </g>
</svg>
